<?xml version="1.0" standalone="no"?>
<!DOCTYPE svg PUBLIC "-//W3C//DTD SVG 20010904//EN"
 "http://www.w3.org/TR/2001/REC-SVG-20010904/DTD/svg10.dtd">
<svg version="1.0" xmlns="http://www.w3.org/2000/svg"
 width="16.000000pt" height="16.000000pt" viewBox="0 0 16.000000 16.000000"
 preserveAspectRatio="xMidYMid meet">
<metadata>
Created by potrace 1.11, written by Peter Selinger 2001-2013
</metadata>
<g transform="translate(0.000000,16.000000) scale(0.003194,-0.003194)"
fill="#000000" stroke="none">
<path d="M1452 5000 c-57 -23 -148 -97 -243 -195 -101 -106 -154 -173 -219
-280 -23 -38 -47 -73 -53 -76 -5 -4 -24 -3 -41 2 -82 24 -187 1 -252 -55 -60
-51 -89 -116 -91 -206 -1 -41 2 -79 7 -85 22 -28 14 -51 -30 -86 -41 -33 -173
-167 -244 -249 -63 -72 -114 -155 -180 -290 -7 -14 -9 -36 -6 -50 7 -30 36
-29 90 3 137 82 283 235 423 445 l53 79 65 -20 c56 -17 73 -18 134 -9 l70 11
78 -81 c133 -139 221 -238 306 -343 31 -38 59 -72 62 -75 11 -9 181 -255 187
-270 3 -8 8 -17 12 -20 7 -6 97 -155 126 -210 30 -56 31 -72 11 -125 -56 -148
-62 -186 -61 -365 1 -112 5 -151 26 -227 l26 -93 -35 -72 c-19 -40 -42 -81
-51 -92 -9 -10 -16 -20 -14 -22 4 -6 -129 -208 -139 -212 -5 -2 -9 -10 -9 -17
0 -7 -3 -15 -7 -17 -5 -2 -37 -41 -73 -88 -35 -47 -74 -96 -85 -109 -63 -76
-228 -264 -276 -316 -31 -33 -69 -74 -83 -92 -26 -31 -29 -32 -89 -27 -41 4
-78 0 -110 -9 l-47 -15 -69 91 c-120 159 -254 289 -389 378 -79 52 -125 67
-147 49 -24 -20 12 -101 94 -214 54 -73 278 -295 344 -341 57 -38 58 -40 52
-75 -4 -19 -10 -39 -15 -45 -16 -20 -6 -158 15 -200 59 -119 180 -174 318
-144 47 10 62 10 65 1 11 -35 112 -153 237 -277 144 -144 250 -221 321 -232
50 -8 53 15 11 100 -63 127 -225 307 -404 450 -40 32 -73 62 -73 66 0 5 7 28
16 52 18 52 25 135 13 165 -10 29 11 57 152 196 259 254 452 410 725 582 l122
77 66 -30 c148 -68 186 -76 371 -76 166 0 172 1 268 33 l99 33 91 -46 c50 -26
129 -72 176 -102 177 -114 491 -362 661 -523 15 -14 49 -45 76 -70 l49 -45 -3
-65 c-2 -38 3 -86 12 -115 9 -27 16 -53 16 -56 0 -4 -24 -25 -54 -48 -146
-109 -353 -358 -420 -502 -29 -62 -32 -82 -12 -98 62 -52 399 265 548 513 l26
45 49 -18 c71 -26 141 -27 202 -1 69 30 135 103 155 171 21 68 20 94 -4 170
-10 35 -18 64 -17 64 19 8 99 75 158 134 203 204 359 460 295 484 -43 17 -152
-58 -296 -203 -110 -111 -131 -137 -202 -243 l-53 -79 -45 8 c-25 5 -80 8
-122 9 l-77 0 -118 116 c-110 108 -213 218 -279 299 -16 19 -31 37 -35 40 -39
34 -274 368 -335 477 l-35 61 42 124 c42 122 43 124 43 268 1 184 -10 247 -61
359 -13 30 -25 62 -26 71 -2 26 119 220 219 353 130 174 233 292 467 540 l129
137 80 0 c46 0 93 6 113 15 l35 14 42 -57 c23 -31 94 -109 157 -173 208 -207
394 -324 418 -263 24 63 -225 368 -412 504 -107 78 -106 76 -88 118 9 21 16
67 16 107 1 103 -37 167 -136 233 -36 24 -50 27 -121 27 -45 0 -95 -4 -112 -9
-30 -8 -33 -5 -79 61 -115 163 -425 431 -520 449 -53 10 -68 -7 -47 -54 20
-44 71 -132 86 -149 6 -6 42 -47 81 -90 100 -112 256 -249 340 -298 17 -10 16
-14 -5 -73 -19 -52 -22 -75 -17 -133 l6 -71 -58 -56 c-344 -334 -608 -536
-942 -720 l-56 -31 -67 25 c-100 36 -150 45 -266 48 -137 4 -214 -7 -328 -46
l-93 -32 -52 28 c-76 41 -286 188 -396 277 -136 110 -222 188 -419 381 l-173
170 -4 73 c-2 46 -11 91 -24 120 l-21 47 123 122 c136 134 151 151 221 249 93
131 146 258 115 278 -17 10 -18 10 -47 -1z m-600 -750 c45 -35 42 -84 -7 -116
-21 -14 -30 -14 -54 -4 -57 23 -61 102 -7 128 31 15 40 14 68 -8z m3374 -16
c45 -12 53 -84 13 -116 -29 -25 -55 -22 -84 7 -57 56 -9 130 71 109z m-3354
-3394 c17 -21 17 -30 0 -72 -27 -67 -138 -32 -126 40 10 60 86 80 126 32z
m3376 3 c11 -16 20 -32 20 -38 0 -19 -19 -45 -43 -61 -21 -14 -30 -14 -54 -5
-27 12 -51 47 -51 75 0 26 40 56 75 56 25 0 38 -7 53 -27z"/>
</g>
</svg>
